<?xml version="1.0" encoding="UTF-8"?><svg id="a" xmlns="http://www.w3.org/2000/svg" viewBox="0 0 294 106"><g><path d="M85.94,78.4l-.99,6.92c-1.23,0-2.25-.02-3.27,0-2.75,.08-5.29-.54-7.48-2.27-1.36-1.08-2.67-2.24-4.07-3.26-.53-.39-1.26-.69-1.91-.69-3.48-.05-6.97,.02-10.45,0-.79,0-1.12,.17-1.27,1.04-.3,1.72-.67,3.46-1.32,5.07-.28,.68-1.28,1.3-2.06,1.49-4.11,1.02-9.11-1.1-11.59-4.52-.86-1.18-2.18-2.04-3.33-3-.2-.16-.58-.14-.88-.14-3.14,0-6.28,.01-9.42,.01-4,0-8,0-12,.01-.7,0-1.4,.15-2.1,.24v-2.73c.4-1.01,.83-2.01,1.2-3.03,1.61-4.47,3.8-8.61,6.26-12.69,2.8-4.64,6.16-8.7,10.16-12.27,3.75-3.35,7.67-6.43,13.11-6.67-.11-.8-.15-1.55-.31-2.27-.65-3.04,.15-5.58,2.02-8.12,1.68-2.27,2.74-5,4.09-7.51,.46-.86,.88-1.77,1.51-2.49,.95-1.1,2.05-2.07,3.13-3.05,.86-.78,1.75-.94,3.02-.7,2.09,.4,4.28,.26,6.43,.33,.6,.02,1.22,.06,1.81-.03,.64-.09,1.37-.17,1.88-.52,1.36-.92,2.45-.88,3.92-.16,5.18,2.55,6.95,7.48,8.16,12.42,.81,3.29,.41,6.9,.32,10.36-.13,4.78,.38,9.41,1.7,14.03,.93,3.28,1.4,6.69,1.94,10.07,.69,4.25,1.25,8.53,1.87,12.84m-59.52-1.92l-2.69-2.54-.45,.51,2.16,1.7-1.15-.12c1.18,2.78,3.15,3.76,5.85,3.03l-2.73-1.58,3.93,1.33-.69-.98c.58,.29,1.13,.65,1.73,.85,.97,.31,1.98,.51,2.98,.76l.19-.56c-1.38-.75-2.77-1.51-4.15-2.26-1.46-.8-2.91-1.61-4.37-2.41l4.97,2.02c-.88-.78-1.82-1.41-2.78-1.99-.97-.59-2.06-1.01-2.92-1.73-.77-.64-1.3-1.57-1.94-2.37l.32-.22,9.73,5.17,.47-.48-1.72-1.07c.8-1.26-.53-1.31-1.04-1.6-1.52-.87-3.15-1.57-4.73-2.34-.28-.13-.55-.29-.82-.43l.39-.45,5.89,2.99,.32-.62-4.93-2.51,.16-.33,4.31,1.82c-.89-2.39-3.61-1.62-4.8-3.42l1.9,.53c-.47-.7-.84-1.5-1.43-2.04-.67-.61-1.54-1-2.33-1.48l.18-.39,4.58,1.68c-1.06-2.09-3.38-2.58-3.66-4.6l.48-.45,1.95,2.68c.33-1.36,.34-2.45,.33-3.54,0-1.02-.48-2.14,.71-3.1,.57,7.29,2.9,13.85,5.55,20.34l4.31-5.85-.37,1.12c1.11-1.36,3.87-1.29,3.41-4.07l-2.06,1.84c.47-.65,.8-1.49,1.43-1.89,1.39-.9,1.89-2.16,1.95-3.66,.14-3.42,.22-6.85,.34-10.27,.05-1.34-.18-2.48-1.03-3.65-1.89-2.59-4.85-2.6-6.55,.15-.47,.75-.95,1.49-1.43,2.23l-.41-.26,2.05-3.34-2.34,.76-.14-.5c3.05-1.15,5.68-3.52,9.34-2.96,.47-1.25-.25-1.61-1.15-1.3-2.45,.85-4.89,1.75-7.22,2.86-1.09,.52-1.96,1.56-2.86,2.43-2.67,2.58-5.59,4.97-7.89,7.85-3.41,4.28-6.31,8.97-8.42,14.07-.48,1.16-1.26,2.35-.31,3.65-1.12-.32-1.37,.24-.87,1.07,.56,.92,1.35,1.71,2.03,2.56l-2.47-1.68-.39,.19c.2,.44,.3,1.17,.61,1.27,.69,.23,1.49,.15,2.24,.2,.77,.09,1.09-.24,.69-.93-.5-.86-1.11-1.66-1.67-2.48l.86,.29-.28-3.23,.39-.19,3,2.45,.22-.26-1.32-2.42,1.99,1.56,.22-.19-.89-2.75c.77,1.28,1.28,2.64,3.03,2.81l-.95-2.99c.88,.87,1.86,1.85,2.86,2.82,.28,.27,.62,.47,.94,.7l-1.65-.36-.14,.28c.67,.56,1.34,1.13,2,1.69l-.84,.65Zm15.94-4.51c-2.12,1.05-3.26,2.98-4.47,4.83-.1,.15,.19,.61,.37,.88,.57,.83,1.23,1.6,1.75,2.46,1.52,2.54,3.58,4.31,6.52,5.05,1.19,.3,2.35,.84,3.42,1.47,1.49,.87,4.05,.06,4.42-1.6,.38-1.71,.74-3.44,.87-5.18,.15-1.95-.12-3.93,.05-5.87,.65-7.62-2.51-14.64-3.41-22.02-.43-3.58-1.42-7.09-2.09-10.64-.22-1.18,.18-2.14,1.18-3.04,2.88-2.61,5.41-5.53,6.69-9.32,1.06-3.12,3.3-4.86,6.47-5.54,.83-.18,1.64-.48,2.46-.73-.36-.45-.66-.57-.98-.61-2.34-.27-4.32,.6-6.24,1.83-1.18,.76-2.5,1.31-3.75,1.95l-.3-.55,5.58-3.2c-1.41,.24-2.8,.58-3.97,1.28-1.1,.65-2.38,1.31-2.38,3.02,0,.62-.66,1.23-1.03,1.85l-.4-.24c.25-.68,.8-1.41,.69-2.02-.24-1.36,.45-1.92,1.45-2.46,1-.54,1.95-1.17,2.92-1.77-.82,.04-1.48,.36-2.16,.64-.81,.34-1.73,1.06-2.44,.9-1.36-.31-1.58,.45-1.9,1.31-.19,.51-.26,1.09-.52,1.56-1.55,2.81-2.93,5.76-4.8,8.35-1.61,2.23-1.31,4.15-.26,6.32,.4,.82,.65,1.71,.97,2.56l-.3,.12-1.22-2.52c-.09,1,.06,1.89,.1,2.78,.12,2.71,.09,5.44,.32,8.14,.58,6.71,.25,13.26-2.31,19.61-.74,1.83-.91,3.89-1.36,5.84-.08,.36-.26,.7-.39,1.05l-.36-.11v-5l-1.68,1.84-.21-.21,2.7-3.01Zm34.33-29.44c1.69-3.79,1.79-7.71,.71-11.42-1.2-4.14-5.13-5.37-8.84-6.63,1.1,.1,2.15,.32,3.14,.69,1.01,.38,1.96,.91,3.03,1.42-1.34-2.82-7.48-3.89-9.79-1.75l3.58,.85-.92,1.18c1.28-.1,2.15-.28,2.99-.2,.88,.09,1.73,.43,2.59,.66l-.15,.59-8.1-1.61,.08-.49,.86-.24c-4.59-.81-5.95,.08-6.12,3.78-.48,.32-1.1,.49-1.23,.85-1.04,2.78-3.03,4.84-5.09,6.86-1.54,1.51-1.9,3.94-.94,6.08l.75-1.73c.26,.35,.28,.62,.26,.89-.12,2.04,.75,3.66,2.14,5.07,.67,.68,1.32,1.39,1.99,2.08l-.51,.52-2.25-1.74,.37-.06c.33,1.9,.82,3.78,.96,5.69,.24,3.16,3.66,5.14,6.35,3.36-.98-.14-1.97-.04-2.92-.18-.59-.09-1.13-.55-1.68-.84l.24-.56c1.62,.21,3.24,.49,4.86,.59,1.59,.1,3.2,.02,5.05,.02-2.56-.88-4.72-1.75-6.95-2.35-1.06-.28-2.26-.05-3.73-.05,.07-.26,.05-1.16,.39-1.32,1.65-.77,3.39-1.34,5.09-1.98l.24,.63-2.8,1.28c.54,.29,.8,.51,1.09,.58,1.67,.38,3.37,.63,5.01,1.1,1.49,.42,2.64,.21,3.46-1.17,.01-.02,.17,.03,.32,.07l-.21,1.83,2.98-2.82c-1.93-1.43-2.81-3.07-2.65-5.23,.1-1.36-.71-1.71-1.83-1.39-.7,.2-1.33,.65-1.99,.98-1.3,.65-2.54,1.65-3.91,1.84-1.6,.22-3.28,0-4.86,.58-.03,.01-.11-.14-.25-.31l1.35-1.11-.28-.11,.88-2.28,.59,.03c-.47-.74-1.04-1.44-1.39-2.24-.27-.61-.45-1.38-.3-1.99,.07-.3,.98-.55,1.5-.54,.66,.01,1.31,.33,1.98,.49,2.28,.56,4.55,1.24,6.86,1.61,1.39,.22,1.96-.98,1.5-2.3-.79-2.22-1.41-4.49-2.1-6.75l.36-.13,1.44,3.58c1.23-1.56-.46-2.85-.05-4.33,.74,1.21,1.4,2.45,1.69,3.78,.22,1.02-.05,2.15-.1,3.22l.38,.04,.55-5.75h.37v3.91h.48l.22-4.8,.23,.02,.45,4.14,.3,.02,.4-3.18,.31,.02,.92,4.92,1.44-1.06,.34,.39-5.44,5.82c1.34,.21,2.4,.36,3.46,.54,1.77,.29,2.09-.03,1.89-2.09l-1.04,.13Zm3.88,42.59c3.47,.45,4.07-.06,4.01-3.38-.04-2.41-.04-4.85-.4-7.23-1.01-6.55-2.04-13.1-3.39-19.59-.85-4.11-1.76-8.16-1.65-12.38,.08-2.86,.01-5.73,.01-8.59-.22,2.69-.31,5.4-.44,8.11-.04,.92,.18,2.15-.32,2.71-1.78,2-1.36,4.01-.65,6.21,.17,.52-.22,1.63-.67,1.85-.88,.43-.62,.89-.58,1.56,.1,1.61,.03,3.23,.03,4.84-.76-2.23,.05-4.69-1.43-6.81-.39,.79-.6,1.58-.66,2.38-.32,4.01-.71,8.02-.88,12.04-.2,4.89-1.13,9.89,1.66,14.46,.15,.25,.02,.67,.02,1.28-2.31-2.12-1.88-5.51-4.4-7.09l1.33-1.69-.31-.29-1.46,1.69-.25-.23,2.24-2.9c-.57,.07-.8,.1-.75,.09l.62-3.66-.44-.19c-.66,.73-1.37,1.42-1.96,2.2-.84,1.13-1.43,2.5-2.45,3.41-.51,.46-1,.59-.59,1.27,.78,1.29,1.57,2.58,2.45,3.8,1.77,2.44,4.45,3.75,6.96,5.18,.97,.55,2.79,.97,3.4,.47,.94-.78,1.46-.25,2.57-.29l-1.63,.76Zm-11.38-27.01c-1.47,3.94-1.69,4.24-3.03,4.38l2.11-5.49c-.94,.19-1.9,.19-1.96,.43-.33,1.19-.42,2.45-.6,3.75,0,0-.15-.07-.3-.15l-.22,2.99-.51-1.04-1.47,5.07,2.4-1.15c-.12,.65-.41,1.11-.82,1.36-2.24,1.34-2.63,3.23-1,5.21,.39,.47,.81,.92,1.25,1.41,1.95-3.69,4.33-6.86,7.3-9.61,.51-.48,.82-1.87,.5-2.42-.95-1.61-2.27-3-3.65-4.74Zm-7.37,14.41l-4.5,6.62h10.56l.3-.39c-3.21-.98-4.52-3.83-6.36-6.23Zm5.03-28.88c-1.49-.61-2.87-1.19-4.25-1.76-.99-.41-1.9,.11-2.1,1.21-.21,1.12,.66,2.54,1.75,2.85,1.88,.54,3.88-.48,4.6-2.3Zm6.32,9.91c-1.01,.79-2.04,1.43-2.82,2.29-.29,.32-.18,1.28,.1,1.75,.57,.97,1.37,1.81,2.08,2.7l.65-.43v-6.31Zm6-21.04c0-.38,.11-.76-.02-1.03-1.14-2.43-1.91-5.21-3.63-7.13-1.26-1.41-3.8-1.68-5.77-2.43-.1-.04-.29,.19-.44,.29l-.39,.49c6.51,.26,8.03,5.29,10.25,9.81Zm-6.28,16.7c1.36-.28,2.63-1.75,2.51-2.92-.16-1.52-1.6-1.05-2.47-1.39-.6-.24-1.71,1.36-1.45,2.37,.19,.72,.92,1.3,1.41,1.95Zm-14.72,12.23l-.74,.15c.73,3.48,1.47,6.97,2.2,10.45l.7-.14-2.16-10.46Zm-31.47,10.01l-.33,.53,8.58,5.14,.3-.49c-2.58-2.17-5.62-3.59-8.56-5.18Zm31.19,3.53l.49-.08-2-11.78-.6,.1c.7,3.92,1.4,7.84,2.11,11.76Zm7.35-17.35c-2.35,.71-2.78,3.02-.81,4.93l-.67-3.14,1.18,.85,.3-2.64Zm-3.25,9.65l.32-.07c-.63-2.65-1.26-5.31-1.9-7.96l-.65,.16c.74,2.62,1.48,5.25,2.22,7.87Zm-.65,2.42l.52-.12-1.99-8.21-.45,.1,1.92,8.22Zm-3.41-3.13l-.34,.09,1.19,7.13,.64-.12-1.49-7.11Zm-1.35,10.55l.47,.02c1.02-1.92-.56-3.73-.47-5.6v5.59Zm4.9-17.84l1.55,3.86c-.17-3.89-.21-3.95-1.55-3.86Zm-35.95,19.59l-2.33-1.64c.07,2,.28,2.15,2.33,1.64Zm30.18-23.69l.33-.24-3.05-4.29-.38,.28,3.11,4.25Zm-35.02,20.06l-.7,.56,1.92,2.24,.54-.42-1.76-2.38Zm2.93,1.8l.47-.47-2.06-2.06-.45,.44,2.03,2.09ZM71.67,18.59c-1.64-1.19-1.7-1.19-2.65,0h2.65Zm-17.26,1.76l.1,.4,3-1.69c-1.83-.65-2.12,1.04-3.11,1.29Z"/><path d="M42.45,70.7l-2.7,3.01,.21,.21,1.68-1.84v5l.36,.11c.13-.35,.31-.69,.39-1.05,.45-1.95,.62-4.01,1.36-5.84,2.56-6.35,2.89-12.91,2.31-19.61-.23-2.7-.2-5.43-.32-8.14-.04-.9-.19-1.79-.1-2.78l1.22,2.52,.3-.12c-.32-.86-.57-1.75-.97-2.56-1.05-2.17-1.35-4.09,.26-6.32,1.87-2.59,3.24-5.54,4.8-8.35,.26-.47,.32-1.05,.52-1.56,.32-.86,.54-1.62,1.9-1.31,.71,.16,1.63-.56,2.44-.9,.68-.28,1.34-.6,2.16-.64-.97,.59-1.92,1.23-2.92,1.77-1,.54-1.69,1.1-1.45,2.46,.11,.62-.44,1.34-.69,2.02l.4,.24c.36-.62,1.02-1.23,1.03-1.85,0-1.71,1.28-2.37,2.38-3.02,1.18-.7,2.56-1.04,3.97-1.28l-5.58,3.2,.3,.55c1.26-.64,2.57-1.2,3.75-1.95,1.92-1.23,3.91-2.1,6.24-1.83,.32,.04,.62,.16,.98,.61-.82,.25-1.62,.55-2.46,.73-3.17,.68-5.42,2.42-6.47,5.54-1.28,3.79-3.81,6.7-6.69,9.32-.99,.9-1.4,1.86-1.18,3.04,.66,3.55,1.65,7.06,2.09,10.64,.89,7.38,4.06,14.39,3.41,22.02-.17,1.94,.1,3.93-.05,5.87-.13,1.74-.5,3.47-.87,5.18-.37,1.66-2.93,2.47-4.42,1.6-1.07-.62-2.23-1.17-3.42-1.47-2.94-.74-5-2.51-6.52-5.05-.51-.86-1.18-1.63-1.75-2.46-.18-.27-.47-.73-.37-.88,1.22-1.85,2.36-3.77,4.47-4.83Zm7.54-41.62c2.15,.32,2.21,.25,2.52-2.86-1.96,.12-1.23,2.12-2.52,2.86Z" style="fill:#fff;"/><path d="M27.14,72.96c-.31-.23-.66-.43-.94-.7-1-.96-1.98-1.95-2.86-2.82l.95,2.99c-1.75-.17-2.26-1.53-3.03-2.81l.89,2.75-.22,.19-1.99-1.56,1.32,2.42-.22,.26-3-2.45-.39,.19,.28,3.23c-.17-.06-.51-.17-.86-.29-.05-.07-.11-.13-.18-.19-.95-1.3-.17-2.49,.31-3.65,2.11-5.1,5-9.79,8.42-14.07,2.3-2.88,5.22-5.27,7.89-7.85,.9-.87,1.77-1.91,2.86-2.43,2.33-1.12,4.78-2.02,7.22-2.86,.9-.31,1.62,.04,1.15,1.3-3.66-.56-6.29,1.81-9.34,2.96l.14,.5,2.34-.76-2.05,3.34,.41,.26c.48-.74,.97-1.48,1.43-2.23,1.7-2.75,4.66-2.74,6.55-.15,.85,1.17,1.08,2.31,1.03,3.65-.13,3.42-.2,6.85-.34,10.27-.06,1.51-.56,2.77-1.95,3.66-.62,.4-.96,1.25-1.43,1.89-.33,.37-.66,.74-.98,1.11l-4.31,5.85c-2.64-6.5-4.97-13.06-5.55-20.34-1.19,.96-.71,2.09-.71,3.1,0,1.09,0,2.18-.33,3.54l-1.95-2.68-.48,.45c.28,2.02,2.6,2.52,3.66,4.6l-4.58-1.68-.18,.39c.79,.48,1.66,.87,2.33,1.48,.59,.55,.96,1.34,1.43,2.04l-1.9-.53c1.19,1.8,3.91,1.03,4.8,3.42l-4.31-1.82-.16,.33,4.93,2.51-.32,.62-5.89-2.99-.39,.45c.27,.14,.54,.3,.82,.43,1.58,.77,3.2,1.47,4.73,2.34,.51,.29,1.84,.34,1.04,1.6l1.72,1.07-.47,.48-9.73-5.17-.32,.22c.64,.8,1.17,1.73,1.94,2.37,.86,.71,1.95,1.14,2.92,1.73,.97,.58,1.91,1.21,2.78,1.99l-4.97-2.02,.02,.02Zm9.37-1.51l1.79-4.88-1.39,1.83,.17-1.42c-1.37,1.47-1.53,3.04-.55,4.46l-.19,1.99,.55,.14c.44-.87,1.39-1.87,1.21-2.59-.28-1.16,.32-1.84,.64-2.69,.2-.52,.55-.98,.84-1.47l-.37-.21c-.9,1.62-1.8,3.23-2.7,4.85Zm-5.93-.56l.21-.44-3.81-1.79-.18,.38,3.78,1.85Z" style="fill:#fff;"/><path d="M76.78,41.27l1.04-.13c.19,2.05-.12,2.38-1.89,2.09-1.06-.17-2.12-.33-3.46-.54l5.44-5.82-.34-.39-1.44,1.06-.92-4.92-.31-.02-.4,3.18-.3-.02-.45-4.14-.23-.02-.22,4.81h-.48v-3.9h-.37l-.55,5.74-.38-.04c.05-1.08,.31-2.2,.1-3.22-.28-1.33-.95-2.57-1.69-3.78-.42,1.48,1.27,2.77,.05,4.33l-1.44-3.58-.36,.13c.69,2.25,1.32,4.53,2.1,6.75,.47,1.32-.1,2.52-1.5,2.3-2.31-.37-4.58-1.05-6.86-1.61-.66-.16-1.32-.48-1.98-.49-.52-.01-1.43,.24-1.5,.54-.15,.61,.04,1.38,.3,1.99,.35,.8,.92,1.5,1.39,2.24l-.59-.03-.88,2.28,.28,.11-1.35,1.11c.13,.17,.22,.32,.25,.31,1.58-.58,3.26-.36,4.86-.58,1.36-.19,2.61-1.19,3.91-1.84,.66-.33,1.29-.78,1.99-.98,1.12-.32,1.93,.03,1.83,1.39-.16,2.16,.73,3.8,2.65,5.23l-2.98,2.82,.21-1.83c-.15-.03-.31-.09-.32-.07-.82,1.38-1.97,1.59-3.46,1.17-1.64-.46-3.34-.72-5.01-1.1-.29-.07-.55-.29-1.09-.58l2.8-1.28-.24-.63c-1.71,.64-3.45,1.21-5.09,1.98-.34,.16-.32,1.06-.39,1.32,1.47,0,2.67-.23,3.73,.05,2.23,.6,4.39,1.46,6.95,2.35-1.85,0-3.45,.08-5.05-.02-1.63-.1-3.24-.39-4.86-.59l-.24,.56c.56,.29,1.09,.75,1.68,.84,.96,.14,1.95,.04,2.92,.18-2.69,1.78-6.11-.2-6.35-3.36-.14-1.91-.63-3.8-.96-5.69l-.37,.06,2.25,1.74,.51-.52c-.66-.69-1.31-1.4-1.99-2.08-1.39-1.41-2.26-3.03-2.14-5.07,.02-.27,0-.54-.26-.89l-.75,1.73c-.96-2.14-.6-4.57,.94-6.08,2.06-2.02,4.04-4.07,5.09-6.86,.13-.36,.75-.53,1.23-.85,.16-3.7,1.52-4.59,6.12-3.78l-.86,.24-.08,.49,8.1,1.61,.15-.59c-.86-.23-1.72-.57-2.59-.66-.84-.08-1.71,.1-2.99,.2l.92-1.18-3.58-.85c2.31-2.15,8.45-1.07,9.79,1.75-1.07-.51-2.02-1.04-3.03-1.42-.99-.37-2.04-.59-3.14-.69,3.71,1.26,7.64,2.49,8.84,6.63,1.08,3.7,.98,7.63-.71,11.42Zm-15.33-8.33l-.22-.03c0-.57-.02-1.14,0-1.7,.03-.52,.12-1.04,.18-1.56-1.5,3.44-1.49,3.63,.42,4.55l.56-2.18-.55-.15-.4,1.08Zm-5.2,3.19l-.24-.06c-.34,.76-.81,1.5-.96,2.29-.12,.62,.07,1.34,.29,1.95,.06,.17,.8,.26,1.1,.12,.24-.11,.27-.64,.4-.98h-1.11l.52-3.32Zm19.42-8.26l-.35,.08,.73,3.24-1.09-.7-.33,.37,1.44,1.3c.2-.37,.61-.78,.55-1.09-.23-1.09-.62-2.14-.95-3.21Z" style="fill:#fff;"/><path d="M80.65,83.85l1.63-.76c-1.11,.04-1.63-.5-2.57,.29-.61,.51-2.43,.08-3.4-.47-2.52-1.43-5.19-2.74-6.96-5.18-.89-1.22-1.67-2.51-2.45-3.8-.41-.68,.07-.81,.59-1.27,1.02-.91,1.61-2.29,2.45-3.41,.59-.78,1.3-1.47,1.96-2.2l.44,.19-.62,3.66c-.05,0,.18-.02,.75-.09l-2.24,2.9,.25,.23,1.46-1.69,.31,.29-1.33,1.69c2.52,1.58,2.09,4.97,4.4,7.09,0-.61,.13-1.03-.02-1.28-2.79-4.57-1.86-9.57-1.66-14.46,.16-4.02,.55-8.03,.88-12.04,.06-.8,.28-1.59,.66-2.38,1.48,2.12,.67,4.59,1.43,6.81,0-1.61,.07-3.23-.03-4.84-.04-.67-.3-1.13,.58-1.56,.44-.22,.83-1.33,.67-1.85-.71-2.2-1.13-4.21,.65-6.21,.5-.56,.28-1.79,.32-2.71,.12-2.71,.21-5.42,.44-8.11,0,2.86,.06,5.73-.01,8.59-.11,4.22,.8,8.27,1.65,12.38,1.35,6.49,2.38,13.04,3.39,19.59,.37,2.37,.37,4.81,.4,7.23,.05,3.32-.55,3.83-4.01,3.38Z" style="fill:#fff;"/><path d="M69.27,56.84c1.38,1.74,2.7,3.13,3.65,4.74,.32,.54,.01,1.94-.5,2.42-2.98,2.76-5.36,5.93-7.3,9.61-.44-.49-.86-.94-1.25-1.41-1.63-1.98-1.25-3.87,1-5.21,.41-.25,.7-.71,.82-1.36l-2.4,1.15,1.47-5.07,.51,1.04,.22-2.99c.15,.08,.3,.15,.3,.15,.18-1.3,.28-2.56,.6-3.75,.07-.24,1.02-.24,1.96-.43l-2.11,5.49c1.34-.14,1.56-.44,3.03-4.38Z" style="fill:#fff;"/><path d="M61.9,71.25c1.85,2.4,3.15,5.25,6.36,6.23l-.3,.39h-10.56l4.5-6.62Z" style="fill:#fff;"/><path d="M66.93,42.37c-.72,1.82-2.72,2.83-4.6,2.3-1.09-.31-1.96-1.73-1.75-2.85,.2-1.09,1.11-1.61,2.1-1.21,1.38,.57,2.76,1.14,4.25,1.76Z" style="fill:#fff;"/><path d="M73.26,52.28v6.31l-.65,.43c-.71-.89-1.51-1.73-2.08-2.7-.27-.47-.38-1.43-.1-1.75,.78-.87,1.82-1.51,2.82-2.29Z" style="fill:#fff;"/><path d="M79.26,31.24c-2.22-4.52-3.73-9.55-10.25-9.81l.39-.49c.15-.1,.34-.33,.44-.29,1.98,.75,4.51,1.02,5.77,2.43,1.72,1.92,2.49,4.7,3.63,7.13,.12,.27,.02,.64,.02,1.03Z" style="fill:#fff;"/><path d="M27.12,72.94c1.46,.8,2.91,1.61,4.37,2.41,1.38,.76,2.77,1.51,4.15,2.26l-.19,.56c-1-.25-2.01-.45-2.98-.76-.61-.19-1.16-.56-1.73-.85l-3.39-2-2.01-1.69,.14-.28,1.65,.36-.02-.02Z" style="fill:#fff;"/><path d="M72.98,47.95c-.49-.64-1.22-1.22-1.41-1.95-.26-1.01,.85-2.61,1.45-2.37,.87,.35,2.31-.12,2.47,1.39,.12,1.17-1.15,2.64-2.51,2.92Z" style="fill:#fff;"/><path d="M58.26,60.17l2.16,10.46-.7,.14c-.73-3.48-1.47-6.97-2.2-10.45l.74-.15Z" style="fill:#fff;"/><path d="M27.5,76.23c.91,.53,1.82,1.05,2.73,1.58-2.7,.73-4.66-.26-5.85-3.03,.43,.04,.79,.08,1.15,.12,.33,.23,.66,.46,1,.7l.98,.64Z" style="fill:#fff;"/><path d="M26.79,70.18c2.94,1.59,5.98,3.01,8.56,5.18l-.3,.49-8.58-5.14,.33-.53Z" style="fill:#fff;"/><path d="M57.98,73.71c-.7-3.92-1.4-7.84-2.11-11.76l.6-.1,2,11.78-.49,.08Z" style="fill:#fff;"/><path d="M65.33,56.36l-.3,2.64-1.18-.85,.67,3.14c-1.97-1.91-1.54-4.22,.81-4.93Z" style="fill:#fff;"/><path d="M16.91,74.21c.06,.06,.12,.12,.18,.19,.56,.82,1.17,1.62,1.67,2.48,.4,.69,.08,1.02-.69,.93v.02c-.67-.85-1.46-1.64-2.02-2.56-.5-.83-.25-1.38,.87-1.07Z" style="fill:#fff;"/><path d="M40.57,69.14c.33-.37,.66-.74,.98-1.11,.65-.58,1.3-1.17,2.06-1.84,.46,2.78-2.3,2.71-3.41,4.07l.37-1.12Z" style="fill:#fff;"/><path d="M62.08,66.01c-.74-2.62-1.48-5.25-2.22-7.87l.65-.16c.63,2.65,1.26,5.31,1.9,7.96l-.32,.07Z" style="fill:#fff;"/><path d="M27.5,76.23c-.33-.21-.65-.43-.98-.64,0-.12-.01-.25-.02-.37,.28-.22,.56-.43,.84-.65,1.13,.67,2.26,1.33,3.39,2l.69,.98-3.93-1.33Z" style="fill:#fff;"/><path d="M61.43,68.44l-1.92-8.22,.45-.1,1.99,8.21-.52,.12Z" style="fill:#fff;"/><path d="M58.01,65.31l1.49,7.11-.64,.12-1.19-7.13,.34-.09Z" style="fill:#fff;"/><path d="M56.66,75.85v-5.59c-.1,1.88,1.49,3.68,.47,5.6l-.47-.02Z" style="fill:#fff;"/><path d="M61.56,58.02c1.35-.09,1.38-.03,1.55,3.86l-1.55-3.86Z" style="fill:#fff;"/><path d="M25.61,77.6c-2.05,.51-2.26,.36-2.33-1.64l2.33,1.64Z" style="fill:#fff;"/><path d="M55.8,53.91l-3.11-4.25,.38-.28,3.05,4.29-.33,.24Z" style="fill:#fff;"/><path d="M20.77,73.97l1.76,2.38-.54,.42-1.92-2.24,.7-.56Z" style="fill:#fff;"/><path d="M18.06,77.81c-.75-.05-1.55,.03-2.24-.2-.31-.1-.41-.83-.61-1.27l.39-.19c.82,.56,1.65,1.12,2.47,1.68v-.02Z" style="fill:#fff;"/><path d="M26.51,75.22c0,.12,.01,.25,.02,.37-.33-.23-.67-.47-1-.7-.72-.57-1.44-1.13-2.16-1.7l.45-.51,2.69,2.54Z" style="fill:#fff;"/><path d="M23.7,75.76l-2.03-2.09,.45-.44,2.06,2.06-.47,.47Z" style="fill:#fff;"/><path d="M71.67,18.59h-2.65c.95-1.19,1-1.19,2.65,0Z" style="fill:#fff;"/><path d="M54.41,20.34c.99-.25,1.27-1.94,3.11-1.29l-3,1.69-.1-.4Z" style="fill:#fff;"/><path d="M49.99,29.09c1.28-.73,.56-2.74,2.52-2.86-.31,3.11-.36,3.18-2.52,2.86Z"/><path d="M36.51,71.45l2.7-4.85,.37,.21c-.28,.49-.64,.95-.84,1.47-.32,.85-.91,1.53-.64,2.69,.17,.73-.77,1.72-1.21,2.59l-.55-.14,.19-1.99-.02,.02Z"/><path d="M36.53,71.44c-.98-1.42-.82-2.98,.55-4.46l-.17,1.42,1.39-1.83c-.68,1.86-1.24,3.37-1.79,4.88l.02-.02Z"/><path d="M30.59,70.89l-3.78-1.85,.18-.38,3.81,1.79-.21,.44Z"/><path d="M61.45,32.94l.4-1.08,.55,.15-.56,2.18c-1.91-.92-1.92-1.11-.42-4.55-.06,.52-.15,1.04-.18,1.56-.03,.57,0,1.14,0,1.7l.22,.03Z"/><path d="M56.26,36.13l-.52,3.32h1.11c-.13,.34-.16,.87-.4,.98-.3,.14-1.04,.05-1.1-.12-.22-.61-.41-1.33-.29-1.95,.16-.8,.63-1.53,.96-2.29l.24,.06Z"/><path d="M75.68,27.87c.33,1.07,.72,2.12,.95,3.21,.07,.31-.35,.73-.55,1.09l-1.44-1.3,.33-.37,1.09,.7-.73-3.24,.35-.08Z"/></g><g><path d="M126.39,40.16c0,3.07-1.06,5.67-3.18,7.79-2.12,2.12-4.72,3.18-7.79,3.18-1.98,0-3.79-.48-5.43-1.45-1.64,.96-3.45,1.45-5.43,1.45-3.1,0-5.7-1.05-7.81-3.16-2.11-2.11-3.16-4.71-3.16-7.81V19.42c0-1.48,.49-2.71,1.48-3.69,.99-.98,2.23-1.47,3.71-1.47s2.72,.49,3.69,1.47c.98,.98,1.47,2.21,1.47,3.69v16.84c0,.36,.17,.57,.51,.62V19.42c0-1.48,.49-2.71,1.48-3.69,.99-.98,2.23-1.47,3.71-1.47s2.72,.49,3.69,1.47c.98,.98,1.47,2.21,1.47,3.69v16.84c0,.42,.21,.62,.62,.62s.62-.21,.62-.62V19.42c0-1.48,.49-2.71,1.47-3.69,.98-.98,2.21-1.47,3.69-1.47s2.72,.49,3.71,1.47,1.48,2.21,1.48,3.69v20.75Zm-2.54-3.91V19.42c0-.78-.25-1.41-.74-1.89-.5-.48-1.13-.72-1.91-.72s-1.41,.24-1.9,.72c-.48,.48-.72,1.11-.72,1.89v16.84c0,.89-.31,1.63-.92,2.25-.61,.61-1.36,.92-2.25,.92s-1.63-.31-2.25-.92c-.61-.61-.92-1.36-.92-2.25V19.42c0-.78-.24-1.41-.72-1.89-.48-.48-1.11-.72-1.9-.72s-1.42,.24-1.91,.72c-.5,.48-.74,1.11-.74,1.89v18.87c-.62,.76-1.43,1.13-2.42,1.13-.89,0-1.63-.31-2.25-.92-.61-.61-.92-1.36-.92-2.25V19.42c0-.78-.24-1.41-.72-1.89-.48-.48-1.11-.72-1.9-.72s-1.42,.24-1.91,.72c-.5,.48-.74,1.11-.74,1.89v16.84c0,2.42,.8,4.43,2.4,6.04,1.6,1.6,3.61,2.4,6.04,2.4,2.06,0,3.87-.66,5.43-1.99,1.56,1.33,3.37,1.99,5.43,1.99,2.4,0,4.4-.81,6.02-2.42,1.61-1.62,2.42-3.62,2.42-6.02Z"/><path d="M150.18,38.68c0,3.52-1.21,6.49-3.63,8.91-2.42,2.42-5.39,3.63-8.91,3.63s-6.51-1.21-8.91-3.61c-2.4-2.41-3.59-5.39-3.59-8.93,0-.65,.05-1.3,.16-1.95-.1-.65-.16-1.3-.16-1.95,0-3.54,1.2-6.51,3.59-8.91,2.4-2.4,5.37-3.59,8.91-3.59s6.52,1.2,8.93,3.59c2.41,2.4,3.61,5.37,3.61,8.91,0,.68-.05,1.34-.16,1.99,.1,.62,.16,1.26,.16,1.91Zm-2.54-3.91c0-2.84-.96-5.21-2.87-7.11s-4.29-2.85-7.13-2.85-5.21,.95-7.11,2.85c-1.9,1.9-2.85,4.27-2.85,7.11s.95,5.22,2.85,7.13c1.9,1.91,4.27,2.87,7.11,2.87s5.22-.96,7.13-2.87c1.91-1.92,2.87-4.29,2.87-7.13Zm-5.27,0c0,1.3-.46,2.42-1.39,3.34-.92,.92-2.04,1.39-3.34,1.39s-2.41-.46-3.32-1.39-1.37-2.04-1.37-3.34,.46-2.41,1.37-3.32,2.02-1.37,3.32-1.37,2.42,.46,3.34,1.37c.92,.91,1.39,2.02,1.39,3.32Z"/><path d="M170.62,40.16c0,3.07-1.05,5.67-3.16,7.79-2.11,2.12-4.7,3.18-7.77,3.18s-5.7-1.05-7.81-3.16c-2.11-2.11-3.16-4.71-3.16-7.81v-12.66c0-1.48,.49-2.72,1.47-3.71,.98-.99,2.21-1.48,3.69-1.48s2.72,.5,3.71,1.48c.99,.99,1.48,2.23,1.48,3.71v8.75c0,.42,.21,.62,.62,.62,.39,0,.59-.21,.59-.62v-8.83c0-1.48,.49-2.72,1.48-3.69,.99-.98,2.23-1.46,3.71-1.46s2.72,.49,3.69,1.46c.98,.98,1.47,2.21,1.47,3.69v12.74Zm-2.54-3.91v-8.83c0-.78-.24-1.41-.72-1.89s-1.11-.72-1.9-.72-1.42,.24-1.91,.72c-.49,.48-.74,1.11-.74,1.89v8.83c0,.89-.3,1.63-.9,2.25-.6,.61-1.34,.92-2.23,.92s-1.63-.31-2.25-.92c-.61-.61-.92-1.36-.92-2.25v-8.75c0-.78-.25-1.42-.74-1.91-.5-.5-1.13-.74-1.91-.74s-1.41,.25-1.9,.74-.72,1.13-.72,1.91v8.75c0,2.42,.8,4.43,2.4,6.04,1.6,1.6,3.61,2.4,6.04,2.4s4.4-.81,6-2.42c1.6-1.62,2.4-3.62,2.4-6.02Z"/><path d="M179.72,45.99c0,1.49-.5,2.72-1.5,3.69s-2.23,1.46-3.69,1.46-2.71-.49-3.69-1.46-1.47-2.21-1.47-3.69V19.5c0-1.48,.49-2.71,1.47-3.69s2.21-1.46,3.69-1.46c1.59,0,2.85,.46,3.79,1.39,.94,.92,1.41,2.18,1.41,3.77v26.49Zm-2.54-3.91V19.5c0-1.74-.89-2.62-2.66-2.62-.78,0-1.41,.24-1.89,.72-.48,.48-.72,1.11-.72,1.89v22.58c0,.78,.24,1.41,.72,1.89s1.11,.72,1.89,.72,1.42-.24,1.92-.72c.49-.48,.74-1.11,.74-1.89Z"/><path d="M203.43,38.64c0,3.49-1.22,6.45-3.65,8.87-2.44,2.42-5.4,3.63-8.89,3.63s-6.48-1.21-8.89-3.61c-2.41-2.41-3.61-5.37-3.61-8.89,0-.65,.05-1.3,.16-1.95-.1-.65-.16-1.3-.16-1.95,0-3.54,1.2-6.52,3.59-8.93,2.4-2.41,5.37-3.61,8.91-3.61,.78,0,1.51,.14,2.19,.43v-3.2c0-1.46,.5-2.68,1.49-3.67,.99-.99,2.21-1.49,3.67-1.49s2.72,.49,3.71,1.47c.99,.98,1.48,2.21,1.48,3.69v19.22Zm-2.54-3.91v-15.32c0-.78-.25-1.41-.74-1.89-.49-.48-1.13-.72-1.91-.72s-1.38,.25-1.88,.74-.74,1.12-.74,1.88v15.32c0,1.3-.46,2.41-1.39,3.32-.93,.91-2.04,1.37-3.34,1.37s-2.41-.46-3.32-1.37c-.91-.91-1.37-2.02-1.37-3.32s.46-2.42,1.37-3.34,2.02-1.39,3.32-1.39c.78,0,1.42-.24,1.91-.72,.5-.48,.74-1.11,.74-1.89s-.25-1.42-.74-1.91-1.13-.74-1.91-.74c-2.84,0-5.21,.96-7.11,2.87-1.9,1.91-2.85,4.29-2.85,7.13s.96,5.18,2.87,7.09,4.28,2.87,7.09,2.87,5.18-.96,7.11-2.87c1.93-1.92,2.89-4.28,2.89-7.09Zm-8.44,1.49c-.6,.03-1.43,.18-2.5,.47,.29,.13,.6,.2,.94,.2,.62,0,1.15-.22,1.56-.66Z"/><path d="M235.94,40.16c0,3.07-1.05,5.67-3.16,7.79-2.11,2.12-4.7,3.18-7.78,3.18s-5.7-1.05-7.81-3.16c-2.11-2.11-3.17-4.71-3.17-7.81v-.39c0-.49,.07-.98,.2-1.45-.13-.68-.2-1.37-.2-2.07v-.39c0-1.09,.29-2.07,.86-2.93-.57-1.35-.86-2.8-.86-4.34v-9.18c0-1.48,.49-2.71,1.47-3.69,.98-.98,2.21-1.47,3.69-1.47s2.72,.49,3.71,1.47,1.48,2.21,1.48,3.69v5.27c0,.42,.21,.63,.62,.63,.39,0,.59-.21,.59-.63v-5.27c0-1.46,.5-2.68,1.5-3.67s2.23-1.49,3.69-1.49,2.71,.49,3.69,1.47,1.46,2.21,1.46,3.69v20.75Zm-2.54-3.91V19.42c0-.78-.24-1.41-.72-1.89-.48-.48-1.11-.72-1.89-.72s-1.39,.25-1.9,.74c-.51,.5-.76,1.12-.76,1.88v5.27c-.08,.34-.16,.64-.23,.9-.18,.65-.4,1.09-.66,1.33-.6,.62-1.34,.94-2.23,.94s-1.63-.31-2.25-.92c-.61-.61-.92-1.36-.92-2.25v-5.27c0-.78-.25-1.41-.74-1.89-.5-.48-1.13-.72-1.91-.72s-1.41,.24-1.9,.72c-.48,.48-.72,1.11-.72,1.89v5.27c0,2.42,.8,4.43,2.4,6.04s3.61,2.4,6.04,2.4c1.09,0,2.14-.21,3.13-.62v3.75c0,.89-.3,1.63-.9,2.25-.6,.61-1.34,.92-2.23,.92s-1.63-.31-2.25-.92c-.61-.61-.92-1.36-.92-2.25v-.39c0-.78-.25-1.41-.74-1.89-.5-.48-1.13-.72-1.91-.72s-1.41,.24-1.9,.72c-.48,.48-.72,1.11-.72,1.89v.39c0,2.42,.8,4.43,2.4,6.04s3.61,2.4,6.04,2.4,4.4-.81,6-2.42,2.4-3.62,2.4-6.02Z"/><path d="M259.77,38.68c0,3.52-1.21,6.49-3.63,8.91-2.42,2.42-5.39,3.63-8.91,3.63s-6.51-1.21-8.91-3.61c-2.4-2.41-3.59-5.39-3.59-8.93,0-.65,.05-1.3,.16-1.95-.1-.65-.16-1.3-.16-1.95,0-3.54,1.2-6.51,3.59-8.91,2.4-2.4,5.37-3.59,8.91-3.59s6.52,1.2,8.93,3.59,3.61,5.37,3.61,8.91c0,.68-.05,1.34-.16,1.99,.1,.62,.16,1.26,.16,1.91Zm-2.54-3.91c0-2.84-.96-5.21-2.87-7.11-1.92-1.9-4.29-2.85-7.13-2.85s-5.21,.95-7.11,2.85-2.85,4.27-2.85,7.11,.95,5.22,2.85,7.13c1.9,1.91,4.27,2.87,7.11,2.87s5.22-.96,7.13-2.87c1.91-1.92,2.87-4.29,2.87-7.13Zm-5.27,0c0,1.3-.46,2.42-1.39,3.34-.92,.92-2.04,1.39-3.34,1.39s-2.41-.46-3.32-1.39c-.91-.92-1.37-2.04-1.37-3.34s.46-2.41,1.37-3.32c.91-.91,2.02-1.37,3.32-1.37s2.42,.46,3.34,1.37c.92,.91,1.39,2.02,1.39,3.32Z"/><path d="M280.21,40.16c0,3.07-1.05,5.67-3.17,7.79-2.11,2.12-4.7,3.18-7.77,3.18s-5.7-1.05-7.81-3.16-3.17-4.71-3.17-7.81v-12.66c0-1.48,.49-2.72,1.46-3.71,.98-.99,2.21-1.48,3.69-1.48s2.72,.5,3.71,1.48c.99,.99,1.48,2.23,1.48,3.71v8.75c0,.42,.21,.62,.62,.62,.39,0,.59-.21,.59-.62v-8.83c0-1.48,.49-2.72,1.48-3.69s2.23-1.46,3.71-1.46,2.72,.49,3.69,1.46,1.46,2.21,1.46,3.69v12.74Zm-2.54-3.91v-8.83c0-.78-.24-1.41-.72-1.89-.48-.48-1.11-.72-1.89-.72s-1.42,.24-1.91,.72c-.5,.48-.74,1.11-.74,1.89v8.83c0,.89-.3,1.63-.9,2.25-.6,.61-1.34,.92-2.23,.92s-1.63-.31-2.25-.92c-.61-.61-.92-1.36-.92-2.25v-8.75c0-.78-.25-1.42-.74-1.91s-1.13-.74-1.91-.74-1.41,.25-1.89,.74c-.48,.5-.72,1.13-.72,1.91v8.75c0,2.42,.8,4.43,2.4,6.04,1.6,1.6,3.61,2.4,6.04,2.4s4.4-.81,6-2.42,2.4-3.62,2.4-6.02Z"/><path d="M118.62,66.67c0,3-.94,5.64-2.81,7.93,.83,.96,1.25,2.12,1.25,3.48,0,.68-.12,1.33-.35,1.95,.23,.6,.35,1.25,.35,1.95,0,1.49-.5,2.72-1.48,3.69-.99,.98-2.23,1.46-3.71,1.46-3.33,0-6.06-1.19-8.17-3.55-.34,1.07-.96,1.93-1.86,2.58-.9,.65-1.93,.98-3.11,.98-1.46,0-2.68-.5-3.67-1.48s-1.48-2.21-1.48-3.67v-19.22c0-3.54,1.2-6.51,3.59-8.91,2.4-2.4,5.37-3.59,8.91-3.59s6.52,1.2,8.93,3.59c2.41,2.4,3.61,5.37,3.61,8.91,0,.65-.05,1.29-.16,1.91,.1,.65,.16,1.32,.16,1.99Zm-2.54-3.91c0-2.84-.96-5.21-2.87-7.11-1.91-1.9-4.29-2.85-7.13-2.85s-5.21,.95-7.11,2.85c-1.9,1.9-2.85,4.27-2.85,7.11v15.32c0,.75,.25,1.38,.74,1.88,.49,.49,1.12,.74,1.88,.74s1.42-.24,1.91-.72c.49-.48,.74-1.11,.74-1.89v-15.32c0-1.3,.46-2.41,1.37-3.32,.91-.91,2.02-1.37,3.32-1.37s2.42,.46,3.34,1.37c.92,.91,1.39,2.02,1.39,3.32s-.46,2.42-1.39,3.34c-.92,.92-2.04,1.39-3.34,1.39-.7,0-1.32,.26-1.84,.78s-.78,1.13-.78,1.84v2.15c0,2.42,.8,4.43,2.4,6.04,1.6,1.6,3.6,2.4,6,2.4,.78,0,1.42-.24,1.91-.72,.49-.48,.74-1.11,.74-1.89s-.25-1.45-.74-1.93c-.5-.48-1.15-.72-1.97-.72s-1.53-.29-2.13-.88c-.6-.59-.91-1.3-.94-2.13,2.19-.63,3.96-1.82,5.31-3.59,1.35-1.77,2.03-3.79,2.03-6.06Zm-9.02,1.95c-.31-.13-.64-.2-.98-.2-.65,0-1.19,.23-1.6,.7,.62-.05,1.48-.22,2.58-.51Z"/><path d="M142.33,81.99c0,1.49-.5,2.72-1.5,3.69-1,.98-2.23,1.46-3.69,1.46s-2.67-.47-3.63-1.41c-.99,.99-2.23,1.48-3.71,1.48-3.54,0-6.51-1.21-8.91-3.61-2.4-2.41-3.59-5.39-3.59-8.93,0-.65,.05-1.3,.16-1.95-.1-.65-.16-1.3-.16-1.95,0-3.54,1.2-6.51,3.59-8.91,2.4-2.4,5.37-3.59,8.91-3.59s6.52,1.21,8.93,3.61c2.41,2.41,3.61,5.37,3.61,8.89v11.21Zm-2.54-3.91v-7.31c0-2.84-.96-5.21-2.87-7.11s-4.29-2.85-7.13-2.85-5.21,.95-7.11,2.85c-1.9,1.9-2.85,4.27-2.85,7.11s.95,5.22,2.85,7.13c1.9,1.91,4.27,2.87,7.11,2.87,.78,0,1.42-.25,1.91-.74,.49-.49,.74-1.13,.74-1.91s-.25-1.41-.74-1.9c-.5-.48-1.13-.72-1.91-.72-1.3,0-2.41-.46-3.32-1.39s-1.37-2.04-1.37-3.34,.46-2.41,1.37-3.32,2.02-1.37,3.32-1.37,2.42,.46,3.34,1.37c.92,.91,1.39,2.02,1.39,3.32v7.31c0,.78,.24,1.41,.72,1.89,.48,.48,1.11,.72,1.89,.72s1.42-.24,1.91-.72c.49-.48,.74-1.11,.74-1.89Zm-8.4-4.88c-.44-.44-.98-.66-1.6-.66-.34,0-.65,.06-.94,.2,.26,.13,.66,.22,1.21,.27,.65,.05,1.09,.12,1.33,.2Z"/><path d="M163,76.16c0,3.07-1.05,5.67-3.16,7.79-2.11,2.12-4.7,3.18-7.77,3.18s-5.7-1.05-7.81-3.16c-2.11-2.11-3.16-4.71-3.16-7.81v-17.35c0-1.48,.49-2.72,1.47-3.71,.98-.99,2.21-1.48,3.69-1.48,1.38,0,2.56,.44,3.54,1.33,.98,.89,1.53,2.02,1.66,3.4h6.41c1.48,0,2.72,.49,3.69,1.46,.98,.98,1.47,2.21,1.47,3.69,0,.73-.1,1.41-.31,2.03,.21,.6,.31,1.22,.31,1.88,0,.86-.14,1.64-.43,2.34,.29,.68,.43,1.39,.43,2.15v.35c0,.73-.07,1.43-.2,2.11,.13,.47,.2,.95,.2,1.45v.35Zm-2.54-3.91v-.35c0-.75-.25-1.38-.74-1.88-.5-.49-1.12-.74-1.88-.74s-1.39,.25-1.9,.74c-.51,.5-.76,1.12-.76,1.88v.35c0,.89-.3,1.63-.9,2.25-.6,.61-1.34,.92-2.23,.92s-1.63-.31-2.25-.92c-.61-.61-.92-1.36-.92-2.25v-6.1h8.95c1.74,0,2.62-.88,2.62-2.66,0-.78-.24-1.41-.72-1.89s-1.11-.72-1.9-.72h-8.95v-2.07c0-.78-.25-1.42-.74-1.91-.5-.5-1.13-.74-1.91-.74s-1.41,.25-1.9,.74-.72,1.13-.72,1.91v13.44c0,2.42,.8,4.43,2.4,6.04,1.6,1.6,3.61,2.4,6.04,2.4s4.4-.81,6-2.42c1.6-1.62,2.4-3.62,2.4-6.02Zm-7.89,.35h-1.05c.13,.18,.31,.27,.55,.27s.4-.09,.51-.27Z"/><path d="M189.41,90.58c0,1.48-.49,2.71-1.46,3.69-.98,.98-2.21,1.46-3.69,1.46-3.15,0-5.79-1.05-7.93-3.15-2.13-2.1-3.2-4.71-3.2-7.83l-.04-11.64c0-.39-.2-.59-.59-.59-.42,0-.62,.2-.62,.59v8.87c0,1.49-.5,2.72-1.48,3.69-.99,.98-2.23,1.46-3.71,1.46s-2.72-.49-3.69-1.46c-.98-.98-1.47-2.21-1.47-3.69v-26.57c0-1.48,.49-2.71,1.47-3.69,.98-.98,2.21-1.47,3.69-1.47s2.72,.49,3.71,1.47c.99,.98,1.48,2.21,1.48,3.69v2.85h.62c3.07,0,5.67,1.05,7.79,3.17,2.12,2.11,3.18,4.7,3.18,7.77v11.64c0,.42,.21,.62,.62,.62,1.54,0,2.81,.49,3.81,1.46,1,.98,1.5,2.22,1.5,3.73,0,.7-.12,1.35-.35,1.95,.23,.6,.35,1.25,.35,1.95Zm-2.54-3.91c0-.78-.24-1.42-.72-1.91-.48-.5-1.11-.74-1.89-.74h-.16c-.89,0-1.63-.31-2.25-.92-.61-.61-.92-1.36-.92-2.25v-11.64c0-2.4-.81-4.4-2.42-6-1.62-1.6-3.62-2.4-6.02-2.4-1.12,0-2.18,.2-3.16,.59v-5.98c0-.78-.25-1.41-.74-1.89-.5-.48-1.13-.72-1.91-.72s-1.41,.24-1.9,.72c-.48,.48-.72,1.11-.72,1.89v22.66c0,.78,.24,1.41,.72,1.89s1.11,.72,1.9,.72,1.42-.24,1.91-.72c.49-.48,.74-1.11,.74-1.89v-8.87c0-.88,.31-1.63,.92-2.23,.61-.6,1.36-.9,2.25-.9s1.6,.31,2.21,.92c.61,.61,.92,1.35,.92,2.21l.04,11.64c0,2.4,.81,4.4,2.42,6.02,1.61,1.62,3.62,2.42,6.02,2.42h.16c.78,0,1.41-.24,1.89-.72,.48-.48,.72-1.11,.72-1.9Z"/><path d="M205.15,69.56c0,1.64-.66,3-1.99,4.06-.21,.21-.57,.59-1.09,1.13,.78,.94,1.17,2.06,1.17,3.36,0,.68-.12,1.33-.35,1.95,.23,.62,.35,1.28,.35,1.95,0,1.49-.49,2.72-1.47,3.71-.98,.99-2.21,1.48-3.69,1.48h-3.48c-3.52,0-6.48-1.21-8.89-3.61s-3.61-5.39-3.61-8.93c0-.65,.05-1.3,.16-1.95-.1-.65-.16-1.3-.16-1.95,0-3.54,1.2-6.51,3.59-8.91,2.4-2.4,5.37-3.59,8.91-3.59,2.32,0,4.57,.64,6.76,1.91,2.53,1.46,3.79,3.28,3.79,5.47,0,.7-.13,1.35-.39,1.95,.26,.62,.39,1.28,.39,1.95Zm-2.54-3.91c0-.65-.26-1.25-.78-1.8-1.98-2.03-4.39-3.05-7.23-3.05s-5.21,.95-7.11,2.85c-1.9,1.9-2.85,4.27-2.85,7.11s.95,5.22,2.85,7.13c1.9,1.91,4.27,2.87,7.11,2.87h3.48c.78,0,1.41-.25,1.89-.74s.72-1.13,.72-1.91-.24-1.41-.72-1.9c-.48-.48-1.11-.72-1.89-.72h-3.48c-1.3,0-2.41-.46-3.32-1.39-.91-.92-1.37-2.04-1.37-3.34s.46-2.41,1.37-3.32c.91-.91,2.02-1.37,3.32-1.37,.34,0,.68,.03,1.02,.08l-2.81,2.77c-.57,.57-.86,1.19-.86,1.84,0,.73,.27,1.37,.8,1.92,.53,.55,1.17,.82,1.9,.82,.65,0,1.26-.27,1.84-.82l5-4.88c.76-.57,1.13-1.29,1.13-2.15Z"/><path d="M219.92,67.34c0,1.54-.46,2.75-1.39,3.65-.93,.9-2.13,1.41-3.61,1.54-.52,.03-.78,.22-.78,.59v8.87c0,1.49-.5,2.72-1.49,3.69s-2.23,1.46-3.71,1.46-2.71-.49-3.69-1.46c-.98-.98-1.47-2.21-1.47-3.69v-12.78c0-3.07,1.06-5.67,3.18-7.77,2.12-2.11,4.72-3.17,7.79-3.17,1.46,0,2.68,.5,3.67,1.48,.99,.99,1.48,2.21,1.48,3.67,0,.73-.12,1.39-.35,1.99,.23,.6,.35,1.24,.35,1.92Zm-2.54-3.91c0-.75-.25-1.38-.74-1.88-.5-.5-1.12-.74-1.88-.74-2.4,0-4.4,.8-6.02,2.4s-2.42,3.6-2.42,6v8.87c0,.78,.24,1.41,.72,1.89,.48,.48,1.11,.72,1.89,.72s1.42-.24,1.91-.72,.74-1.11,.74-1.89v-8.87c0-.88,.29-1.61,.88-2.17,.59-.56,1.32-.88,2.21-.96,1.8-.16,2.7-1.04,2.7-2.66Z"/><path d="M229.88,81.01c0,1.62-.56,2.98-1.68,4.1-1.12,1.12-2.49,1.68-4.1,1.68s-2.98-.56-4.1-1.68c-1.12-1.12-1.68-2.49-1.68-4.1,0-.68,.12-1.31,.35-1.91-.23-.65-.35-1.32-.35-1.99,0-1.59,.57-2.94,1.7-4.06s2.49-1.68,4.08-1.68,2.95,.56,4.08,1.68c1.13,1.12,1.7,2.47,1.7,4.06,0,.7-.11,1.37-.31,1.99,.21,.6,.31,1.24,.31,1.91Zm-2.54-3.91c0-.88-.32-1.64-.96-2.27-.64-.62-1.4-.94-2.29-.94s-1.65,.31-2.29,.94-.96,1.38-.96,2.27,.31,1.68,.94,2.31,1.39,.94,2.3,.94,1.68-.31,2.31-.94,.94-1.39,.94-2.31Z"/><path d="M240.24,81.01c0,1.62-.56,2.98-1.68,4.1-1.12,1.12-2.49,1.68-4.1,1.68s-2.98-.56-4.1-1.68c-1.12-1.12-1.68-2.49-1.68-4.1,0-.68,.12-1.31,.35-1.91-.23-.65-.35-1.32-.35-1.99,0-1.59,.57-2.94,1.7-4.06,1.13-1.12,2.49-1.68,4.08-1.68s2.95,.56,4.08,1.68,1.7,2.47,1.7,4.06c0,.7-.1,1.37-.31,1.99,.21,.6,.31,1.24,.31,1.91Zm-2.54-3.91c0-.88-.32-1.64-.96-2.27-.64-.62-1.4-.94-2.29-.94s-1.65,.31-2.29,.94c-.64,.62-.96,1.38-.96,2.27s.31,1.68,.94,2.31,1.39,.94,2.3,.94,1.68-.31,2.3-.94c.63-.62,.94-1.39,.94-2.31Z"/><path d="M250.59,81.01c0,1.62-.56,2.98-1.68,4.1-1.12,1.12-2.49,1.68-4.1,1.68s-2.98-.56-4.1-1.68c-1.12-1.12-1.68-2.49-1.68-4.1,0-.68,.12-1.31,.35-1.91-.23-.65-.35-1.32-.35-1.99,0-1.59,.57-2.94,1.7-4.06,1.13-1.12,2.49-1.68,4.08-1.68s2.95,.56,4.08,1.68,1.7,2.47,1.7,4.06c0,.7-.1,1.37-.31,1.99,.21,.6,.31,1.24,.31,1.91Zm-2.54-3.91c0-.88-.32-1.64-.96-2.27-.64-.62-1.4-.94-2.29-.94s-1.65,.31-2.29,.94c-.64,.62-.96,1.38-.96,2.27s.31,1.68,.94,2.31,1.39,.94,2.3,.94,1.68-.31,2.3-.94c.63-.62,.94-1.39,.94-2.31Z"/></g></svg>